<svg xmlns="http://www.w3.org/2000/svg" width="3907.002" height="55" viewBox="0 0 3907.002 55"><defs><style>.a{fill:none;stroke:#ef7f00;stroke-width:3px;}.b{fill:#ef7f00;font-size:20px;font-family:Raleway-Black, Raleway;font-weight:800;}</style></defs><g transform="translate(699.001 -706.5)"><line class="a" y1="1" x2="1888.5" transform="translate(1319.5 721)"/><line class="a" x2="2018.5" y2="1" transform="translate(-699 721)"/><g transform="translate(-685 712.599)"><line class="a" y2="17.801" transform="translate(0.5)"/><line class="a" y2="17.801" transform="translate(624.5)"/><line class="a" y2="17.801" transform="translate(936.5)"/><line class="a" y2="17.801" transform="translate(1293.5)"/><line class="a" y2="17.801" transform="translate(44.5)"/><line class="a" y2="17.801" transform="translate(356.5)"/><line class="a" y2="17.801" transform="translate(668.5)"/><line class="a" y2="17.801" transform="translate(980.5)"/><line class="a" y2="17.801" transform="translate(1337.5)"/><line class="a" y2="17.801" transform="translate(1694.5)"/><line class="a" y2="17.801" transform="translate(89.5)"/><line class="a" y2="17.801" transform="translate(401.5)"/><line class="a" y2="17.801" transform="translate(713.5)"/><line class="a" y2="17.801" transform="translate(1025.5)"/><line class="a" y2="17.801" transform="translate(1382.5)"/><line class="a" y2="17.801" transform="translate(1738.5)"/><line class="a" y2="17.801" transform="translate(133.5)"/><line class="a" y2="17.801" transform="translate(445.5)"/><line class="a" y2="17.801" transform="translate(1070.5)"/><line class="a" y2="17.801" transform="translate(1426.5)"/><line class="a" y2="17.801" transform="translate(1783.5)"/><line class="a" y2="17.801" transform="translate(178.5)"/><line class="a" y2="17.801" transform="translate(490.5)"/><line class="a" y2="17.801" transform="translate(802.5)"/><line class="a" y2="17.801" transform="translate(1114.5)"/><line class="a" y2="17.801" transform="translate(1471.5)"/><line class="a" y2="17.801" transform="translate(1828.5)"/><line class="a" y2="17.801" transform="translate(222.5)"/><line class="a" y2="17.801" transform="translate(535.5)"/><line class="a" y2="17.801" transform="translate(847.5)"/><line class="a" y2="17.801" transform="translate(1159.5)"/><line class="a" y2="17.801" transform="translate(1515.5)"/><line class="a" y2="17.801" transform="translate(1872.5)"/><line class="a" y2="17.801" transform="translate(267.5)"/><line class="a" y2="17.801" transform="translate(579.5)"/><line class="a" y2="17.801" transform="translate(891.5)"/><line class="a" y2="17.801" transform="translate(1248.5)"/><line class="a" y2="17.801" transform="translate(1605.5)"/><line class="a" y2="17.801" transform="translate(1560.5)"/><line class="a" y2="17.801" transform="translate(1917.5)"/><line class="a" y2="17.801" transform="translate(1961.5)"/><line class="a" y2="17.801" transform="translate(2273.5)"/><line class="a" y2="17.801" transform="translate(2586.5)"/><line class="a" y2="17.801" transform="translate(2898.5)"/><line class="a" y2="17.801" transform="translate(3254.5)"/><line class="a" y2="17.801" transform="translate(3611.5)"/><line class="a" y2="17.801" transform="translate(2006.5)"/><line class="a" y2="17.801" transform="translate(2318.5)"/><line class="a" y2="17.801" transform="translate(2630.5)"/><line class="a" y2="17.801" transform="translate(2942.5)"/><line class="a" y2="17.801" transform="translate(3299.5)"/><line class="a" y2="17.801" transform="translate(3656.5)"/><line class="a" y2="17.801" transform="translate(2050.5)"/><line class="a" y2="17.801" transform="translate(2363.5)"/><line class="a" y2="17.801" transform="translate(2675.5)"/><line class="a" y2="17.801" transform="translate(3343.5)"/><line class="a" y2="17.801" transform="translate(3700.5)"/><line class="a" y2="17.801" transform="translate(2407.5)"/><line class="a" y2="17.801" transform="translate(2719.5)"/><line class="a" y2="17.801" transform="translate(3031.5)"/><line class="a" y2="17.801" transform="translate(3388.5)"/><line class="a" y2="17.801" transform="translate(3745.5)"/><line class="a" y2="17.801" transform="translate(2140.5)"/><line class="a" y2="17.801" transform="translate(2452.5)"/><line class="a" y2="17.801" transform="translate(2764.5)"/><line class="a" y2="17.801" transform="translate(3076.5)"/><line class="a" y2="17.801" transform="translate(3789.5)"/><line class="a" y2="17.801" transform="translate(2184.5)"/><line class="a" y2="17.801" transform="translate(2496.5)"/><line class="a" y2="17.801" transform="translate(2808.5)"/><line class="a" y2="17.801" transform="translate(3121.5)"/><line class="a" y2="17.801" transform="translate(3477.5)"/><line class="a" y2="17.801" transform="translate(3834.5)"/><line class="a" y2="17.801" transform="translate(2229.5)"/><line class="a" y2="17.801" transform="translate(2853.5)"/><line class="a" y2="17.801" transform="translate(3210.5)"/><line class="a" y2="17.801" transform="translate(3566.5)"/><line class="a" y2="17.801" transform="translate(3165.5)"/><line class="a" y2="17.801" transform="translate(3522.5)"/><g transform="translate(0 1.5)"><line class="a" y2="30" transform="translate(312.5 -7.599)"/><line class="a" y2="30" transform="translate(1649.5 -7.599)"/><line class="a" y2="30" transform="translate(757.5 -7.599)"/><line class="a" y2="30" transform="translate(1203.5 -7.599)"/><line class="a" y2="30" transform="translate(2987.5 -7.599)"/><line class="a" y2="30" transform="translate(2095.5 -7.599)"/><line class="a" y2="30" transform="translate(3433.5 -7.599)"/><line class="a" y2="30" transform="translate(2541.5 -7.599)"/><line class="a" y2="30" transform="translate(3879.5 -7.599)"/></g></g><text class="b" transform="translate(1405 752.5)"><tspan x="0" y="0">5</tspan></text><text class="b" transform="translate(958 752.5)"><tspan x="0" y="0">4</tspan></text><text class="b" transform="translate(513 753.5)"><tspan x="0" y="0">3</tspan></text><text class="b" transform="translate(67 753.5)"><tspan x="0" y="0">2</tspan></text><text class="b" transform="translate(-378 752.5)"><tspan x="0" y="0">1</tspan></text><text class="b" transform="translate(1850 756.5)"><tspan x="0" y="0">6</tspan></text><text class="b" transform="translate(2297 752.5)"><tspan x="0" y="0">7</tspan></text><text class="b" transform="translate(2742 755.5)"><tspan x="0" y="0">8</tspan></text><text class="b" transform="translate(3189 752.5)"><tspan x="0" y="0">9</tspan></text></g></svg>